<svg width="120" height="120" viewBox="0 0 120 120" fill="none" xmlns="http://www.w3.org/2000/svg">

    <!--    logo-->
    <g id="logoSvg">
        <style type="text/css">
            .st0{fill:#76C2AF;}
            .st1{opacity:0.2;}
            .st2{fill:#231F20;}
            .st3{fill:#FFFFFF;}
            .st4{fill:#E0E0D1;}
            .st5{fill:#4F5D73;}
        </style>
        <g id="Layer_1">
            <g>
                <circle class="st0" cx="32" cy="32" r="32"/>
            </g>
            <g class="st1">
                <path class="st2" d="M44,52c0,1.1-0.9,2-2,2H22c-1.1,0-2-0.9-2-2l0,0c0-1.1,0.9-2,2-2h20C43.1,50,44,50.9,44,52L44,52z"/>
            </g>
            <g>
                <path class="st3" d="M44,50c0,1.1-0.9,2-2,2H22c-1.1,0-2-0.9-2-2l0,0c0-1.1,0.9-2,2-2h20C43.1,48,44,48.9,44,50L44,50z"/>
            </g>
            <g>
                <path class="st4" d="M37,42c0,0-1,6,3,6c0,0-20,0-16,0s3-6,3-6H37z"/>
            </g>
            <g class="st1">
                <g>
                    <path class="st2" d="M52,40c0,2.2-1.8,4-4,4H16c-2.2,0-4-1.8-4-4V18c0-2.2,1.8-4,4-4h32c2.2,0,4,1.8,4,4V40z"/>
                </g>
            </g>
            <g>
                <g>
                    <path class="st5" d="M16,40.5c-1.4,0-2.5-1.1-2.5-2.5V16c0-1.4,1.1-2.5,2.5-2.5h32c1.4,0,2.5,1.1,2.5,2.5v22
				c0,1.4-1.1,2.5-2.5,2.5H16z"/>
                </g>
                <g>
                    <path class="st3" d="M48,15c0.6,0,1,0.4,1,1v22c0,0.6-0.4,1-1,1H16c-0.6,0-1-0.4-1-1V16c0-0.6,0.4-1,1-1H48 M48,12H16
				c-2.2,0-4,1.8-4,4v22c0,2.2,1.8,4,4,4h32c2.2,0,4-1.8,4-4V16C52,13.8,50.2,12,48,12L48,12z"/>
                </g>
            </g>
            <g class="st1">
                <polygon class="st3" points="50,39.9 50,13.9 26.2,13.9 41.2,39.9 		"/>
            </g>
        </g>
        <g id="Layer_2">
        </g>
    </g>

    <!--    skills-->
    <g id="htmlSvg">
        <path d="M22.1323 102.004L13.7061 7.5H106.294L97.856 101.989L59.9436 112.5L22.1323 102.004Z" fill="#E44F26"/>
        <path d="M60 104.468L90.6375 95.9738L97.845 15.2288H60V104.468Z" fill="#F1662A"/>
        <path d="M60 50.2762H44.6625L43.605 38.4075H60V26.8162H30.9375L31.215 29.9287L34.0613 61.8675H60V50.2762ZM60 80.3775L59.9475 80.3925L47.04 76.9087L46.215 67.665H34.5787L36.2025 85.86L59.9475 92.4525L60 92.4375V80.3775Z"
              fill="#EBEBEB"/>
        <path d="M59.959 50.2762V61.8675H74.2315L72.889 76.9012L59.959 80.3887V92.4487L83.7227 85.86L83.8952 83.9025L86.6177 53.3887L86.9027 50.2762H59.959ZM59.959 26.8162V38.4075H87.9565L88.189 35.805L88.7177 29.9287L88.9952 26.8162H59.959Z"
              fill="white"/>
    </g>

    <g id="cssSvg">
        <path d="M22.1325 101.154L13.71 7.4375H106.29L97.8562 101.139L59.9437 111.562L22.1325 101.154Z" fill="#1572B6"/>
        <path d="M60 103.597L90.6375 95.174L97.845 15.1019H60V103.597Z" fill="#33A9DC"/>
        <path d="M60 49.054H75.3375L76.395 37.2842H60V25.7896H89.0625L88.785 28.8724L85.9387 60.5487H60V49.054Z"
              fill="white"/>
        <path d="M60.0711 78.9045L60.0186 78.9193L47.1112 75.4609L46.2862 66.2942H34.6499L36.2737 84.3413L60.0149 90.8788L60.0711 90.864V78.9045Z"
              fill="#EBEBEB"/>
        <path d="M74.3513 60.0615L72.9563 75.4534L60.03 78.9119V90.8714L83.79 84.3412L83.9663 82.4001L85.98 60.0615H74.3513Z"
              fill="white"/>
        <path d="M60.0411 25.7896V37.2842H32.0436L31.8111 34.6997L31.2824 28.8724L31.0049 25.7896H60.0411ZM59.9999 49.054V60.5487H47.2536L47.0211 57.9642L46.4961 52.1369L46.2186 49.054H59.9999Z"
              fill="#EBEBEB"/>
    </g>

    <g id="githubSvg">
        <path fill-rule="evenodd" clip-rule="evenodd"
              d="M44 0C19.69 0 0 19.69 0 44C0 63.47 12.595 79.915 30.085 85.745C32.285 86.13 33.11 84.81 33.11 83.655C33.11 82.61 33.055 79.145 33.055 75.46C22 77.495 19.14 72.765 18.26 70.29C17.765 69.025 15.62 65.12 13.75 64.075C12.21 63.25 10.01 61.215 13.695 61.16C17.16 61.105 19.635 64.35 20.46 65.67C24.42 72.325 30.745 70.455 33.275 69.3C33.66 66.44 34.815 64.515 36.08 63.415C26.29 62.315 16.06 58.52 16.06 41.69C16.06 36.905 17.765 32.945 20.57 29.865C20.13 28.765 18.59 24.255 21.01 18.205C21.01 18.205 24.695 17.05 33.11 22.715C36.63 21.725 40.37 21.23 44.11 21.23C47.85 21.23 51.59 21.725 55.11 22.715C63.525 16.995 67.21 18.205 67.21 18.205C69.63 24.255 68.09 28.765 67.65 29.865C70.455 32.945 72.16 36.85 72.16 41.69C72.16 58.575 61.875 62.315 52.085 63.415C53.68 64.79 55.055 67.43 55.055 71.555C55.055 77.44 55 82.17 55 83.655C55 84.81 55.825 86.185 58.025 85.745C66.7597 82.796 74.3497 77.1822 79.7268 69.6937C85.1039 62.2052 87.9974 53.219 88 44C88 19.69 68.31 0 44 0Z"
              fill="black"/>
    </g>

    <g id="gitSvg">
        <g clip-path="url(#clip0_2_5685)">
            <path d="M103.02 47.8219L57.1758 1.98038C54.5372 -0.6598 50.2552 -0.6598 47.6134 1.98038L38.0937 11.5001L50.1699 23.5763C52.9762 22.6281 56.1943 23.2642 58.4313 25.5012C60.6789 27.7525 61.3106 30.9981 60.3393 33.8134L71.9775 45.452C74.7932 44.482 78.0421 45.1095 80.291 47.3621C83.434 50.5039 83.434 55.596 80.291 58.7399C77.1471 61.8841 72.055 61.8841 68.9095 58.7399C66.5454 56.3733 65.9613 52.9013 67.1582 49.9888L56.3046 39.1352L56.3034 67.6973C57.0902 68.0863 57.8088 68.6002 58.4313 69.2189C61.5743 72.3607 61.5743 77.4532 58.4313 80.5995C55.2874 83.7422 50.1929 83.7422 47.0535 80.5995C43.9105 77.4532 43.9105 72.3611 47.0535 69.2193C47.8067 68.4658 48.7019 67.869 49.6871 67.4635V38.6352C48.7004 38.2324 47.8048 37.6353 47.0535 36.8793C44.6722 34.5013 44.0996 31.0071 45.3198 28.0831L33.4154 16.1775L1.98105 47.6099C-0.660352 50.2525 -0.660352 54.5349 1.98105 57.1755L47.8259 103.018C50.4652 105.658 54.7464 105.658 57.3891 103.018L103.019 57.3884C105.66 54.747 105.66 50.4621 103.019 47.8219"
                  fill="#DE4C36"/>
        </g>
        <defs>
            <clipPath id="clip0_2_5685">
                <rect width="105" height="105" fill="white"/>
            </clipPath>
        </defs>
    </g>

    <g id="jsSvg">
        <path d="M7.5 7.5H112.5V112.5H7.5V7.5Z" fill="#F5DE19"/>
        <path d="M78.0338 89.5312C78.9284 91.3485 80.3183 92.8759 82.0434 93.9375C83.7684 94.9991 85.7584 95.5515 87.7838 95.5313C91.8713 95.5313 94.485 93.4875 94.485 90.6562C94.485 87.2812 91.8 86.0738 87.3 84.105L84.8325 83.0475C77.7075 80.0138 72.9825 76.215 72.9825 68.1825C72.9825 60.7838 78.6075 55.1475 87.4313 55.1475C90.2877 54.9412 93.1416 55.5805 95.637 56.9856C98.1324 58.3907 100.159 60.4994 101.464 63.0488L93.75 67.98C93.2476 66.716 92.3728 65.6345 91.2416 64.879C90.1105 64.1236 88.7764 63.7298 87.4163 63.75C86.8229 63.6906 86.2236 63.7555 85.6567 63.9404C85.0897 64.1254 84.5675 64.4265 84.1234 64.8244C83.6792 65.2224 83.3228 65.7085 83.0769 66.2518C82.831 66.7951 82.7009 67.3837 82.695 67.98C82.695 70.9388 84.5288 72.1388 88.7625 73.98L91.23 75.0375C99.615 78.6338 104.355 82.2975 104.355 90.5363C104.355 99.42 97.3763 104.287 88.005 104.287C84.3537 104.52 80.713 103.691 77.5223 101.901C74.3317 100.11 71.7274 97.4342 70.0238 94.1963L78.0338 89.5312ZM43.1775 90.3863C44.7263 93.135 46.1363 95.46 49.5263 95.46C52.7663 95.46 54.8138 94.1925 54.8138 89.2612V55.71H64.68V89.3925C64.68 99.6075 58.68 104.257 49.9463 104.257C46.8591 104.426 43.7931 103.657 41.1513 102.051C38.5096 100.444 36.4157 98.0761 35.145 95.2575L43.1775 90.3863Z"
              fill="black"/>
    </g>

    <g id="reactSvg">
        <g clip-path="url(#clip0_2_5687)">
            <path d="M92.9055 32.7027C91.703 32.2887 90.4903 31.9051 89.2686 31.5523C89.4738 30.7106 89.6627 29.8792 89.8304 29.0623C92.5837 15.6483 90.7838 4.84178 84.6359 1.28375C78.7415 -2.12722 69.1015 1.42949 59.3658 9.93342C58.4063 10.773 57.4681 11.6368 56.552 12.524C55.9388 11.934 55.3148 11.3556 54.6802 10.7888C44.4766 1.69616 34.2492 -2.13608 28.108 1.43215C22.2188 4.85374 20.4749 15.0127 22.9537 27.7254C23.2003 28.9844 23.4787 30.237 23.7887 31.4819C22.341 31.8947 20.9441 32.3342 19.6072 32.8019C7.64431 36.9881 0.00463867 43.5483 0.00463867 50.3529C0.00463867 57.3808 8.20617 64.43 20.666 68.7043C21.6762 69.0495 22.6947 69.3692 23.7208 69.6634C23.3875 71.0042 23.0917 72.354 22.8336 73.7114C20.4705 86.2035 22.3159 96.1223 28.1892 99.5222C34.2554 103.033 44.4369 99.4247 54.3505 90.7268C55.1544 90.0196 55.9406 89.2925 56.7083 88.546C57.7003 89.5066 58.7188 90.4393 59.7626 91.343C69.3659 99.6365 78.85 102.985 84.7176 99.5762C90.7781 96.055 92.7479 85.3995 90.1906 72.4356C89.9891 71.42 89.7632 70.4094 89.5131 69.4047C90.2281 69.1921 90.9299 68.9732 91.614 68.7455C104.567 64.4384 112.995 57.4747 112.995 50.3529C112.995 43.5234 105.109 36.919 92.9055 32.7027ZM90.0961 64.1474C89.4782 64.3525 88.8444 64.5505 88.1982 64.7432C86.7682 60.1995 84.8385 55.3684 82.4768 50.3764C84.7304 45.5036 86.5859 40.734 87.9758 36.22C89.1317 36.5558 90.2533 36.9097 91.3346 37.2832C101.791 40.8961 108.168 46.2372 108.168 50.3529C108.168 54.7367 101.28 60.4277 90.0961 64.1474ZM85.4556 73.3765C86.5864 79.1087 86.7475 84.2916 85.9985 88.3435C85.3258 91.9844 83.9726 94.4115 82.2989 95.3839C78.7384 97.4526 71.1234 94.7637 62.9109 87.6706C61.94 86.8305 60.9926 85.9634 60.0698 85.0703C63.2538 81.5756 66.4356 77.5131 69.5411 73.0008C75.0035 72.5144 80.164 71.7188 84.8438 70.6331C85.0693 71.5426 85.2732 72.4573 85.4556 73.3765ZM38.5256 95.0264C35.0467 96.2592 32.2758 96.2946 30.6008 95.3254C27.0368 93.2624 25.5551 85.298 27.5761 74.6151C27.8164 73.3527 28.0914 72.0972 28.401 70.8502C33.0292 71.8779 38.1522 72.6168 43.6274 73.0624C46.7541 77.4776 50.0277 81.5358 53.327 85.0894C52.6258 85.7703 51.9081 86.4338 51.1744 87.0793C46.7903 90.9252 42.3973 93.654 38.5256 95.0264ZM22.2276 64.1204C16.718 62.2302 12.1679 59.7738 9.04919 57.0933C6.24649 54.6848 4.8319 52.2932 4.8319 50.3529C4.8319 46.2234 10.9656 40.9564 21.1961 37.3766C22.4377 36.9425 23.7371 36.5327 25.0855 36.1482C26.4996 40.7641 28.3543 45.5904 30.5924 50.4707C28.3251 55.4233 26.444 60.3267 25.0162 64.997C24.0796 64.7278 23.1498 64.4355 22.2276 64.1204ZM27.6909 26.7947C25.5674 15.9031 26.9776 7.68706 30.5267 5.62497C34.3066 3.42867 42.6652 6.56011 51.4754 14.4115C52.0499 14.9247 52.6151 15.4482 53.1707 15.9819C49.8878 19.52 46.6442 23.548 43.5453 27.9371C38.2312 28.4315 33.1444 29.2253 28.4677 30.2889C28.1795 29.131 27.9205 27.9661 27.6909 26.7951V26.7947ZM76.43 38.8739C75.3254 36.9589 74.1797 35.0679 72.9939 33.2024C76.599 33.66 80.0532 34.2673 83.2968 35.0098C82.3232 38.1425 81.1094 41.4175 79.6807 44.7753C78.6364 42.7867 77.5526 40.8191 76.43 38.8739ZM56.5542 19.4443C58.7805 21.8652 61.0103 24.5678 63.2035 27.5003C58.7545 27.2894 54.298 27.2886 49.849 27.4977C52.0443 24.5922 54.2931 21.8931 56.5542 19.4443ZM36.5509 38.9071C35.4424 40.8367 34.3788 42.792 33.3612 44.7713C31.9558 41.4255 30.7531 38.1355 29.7711 34.9584C32.9948 34.2346 36.4326 33.6427 40.0148 33.1935C38.8158 35.0704 37.6608 36.9754 36.5509 38.9067V38.9071ZM40.1176 67.8569C36.4168 67.4423 32.9273 66.881 29.7044 66.1767C30.7019 62.9429 31.9311 59.5829 33.3669 56.1653C34.3886 58.1461 35.4566 60.1026 36.5699 62.033C37.7148 64.0176 38.9003 65.9614 40.1176 67.8569ZM56.6875 81.6027C54.3995 79.1255 52.1176 76.3848 49.8891 73.4372C52.0527 73.5222 54.2582 73.5656 56.5 73.5656C58.803 73.5656 61.0796 73.5138 63.3204 73.4137C61.1202 76.4145 58.8988 79.1592 56.6875 81.6027ZM79.7262 55.9907C81.2365 59.446 82.5094 62.7883 83.5202 65.9667C80.2443 66.7171 76.7072 67.3214 72.9803 67.7701C74.1745 65.8699 75.331 63.9461 76.449 61.9998C77.5857 60.0214 78.6783 58.0179 79.7262 55.9907ZM72.2679 59.5794C70.5563 62.5634 68.7486 65.4909 66.8474 68.357C63.4037 68.6018 59.9523 68.7234 56.5 68.7216C52.9836 68.7216 49.5634 68.6118 46.2699 68.3974C44.3191 65.5378 42.4769 62.6053 40.747 59.6059H40.7475C39.0258 56.6225 37.4176 53.5745 35.9264 50.4685C37.4138 47.3618 39.0171 44.3124 40.7329 41.3267L40.7325 41.3271C42.4476 38.3407 44.2752 35.4206 46.2112 32.5734C49.5713 32.3182 53.0171 32.1853 56.4995 32.1853H56.5C59.9983 32.1853 63.4484 32.3195 66.8077 32.5765C68.7242 35.4195 70.5401 38.3295 72.252 41.301C73.9735 44.2801 75.598 47.3147 77.123 50.3999C75.6137 53.5166 73.9943 56.5783 72.2679 59.5794ZM82.2252 5.48056C86.0086 7.67067 87.4801 16.5024 85.1029 28.0842C84.9511 28.8231 84.7807 29.5757 84.5953 30.339C79.9071 29.2528 74.8168 28.4452 69.4873 27.9433C66.3827 23.506 63.1655 19.4717 59.936 15.9792C60.7824 15.1604 61.6489 14.3628 62.5348 13.5871C70.8767 6.30141 78.673 3.42468 82.2252 5.48056ZM56.5 40.2263C62.0723 40.2263 66.5897 44.7603 66.5897 50.3529C66.5897 55.9456 62.0723 60.4795 56.5 60.4795C50.9277 60.4795 46.4102 55.9456 46.4102 50.3529C46.4102 44.7603 50.9277 40.2263 56.5 40.2263Z"
                  fill="#00D8FF"/>
        </g>
        <defs>
            <clipPath id="clip0_2_5687">
                <rect width="113" height="101" fill="white"/>
            </clipPath>
        </defs>
    </g>

    <!--    social-->
    <g id="linkedinSvg">
        <g clip-path="url(#clip0_2_5677)">
            <path d="M15.0001 0.600098C7.0471 0.600098 0.600098 7.0471 0.600098 15.0001C0.600098 22.9531 7.0471 29.4001 15.0001 29.4001C22.9531 29.4001 29.4001 22.9531 29.4001 15.0001C29.4001 7.0471 22.9531 0.600098 15.0001 0.600098ZM11.4751 20.9686H8.5591V11.5846H11.4751V20.9686ZM9.9991 10.4326C9.0781 10.4326 8.4826 9.7801 8.4826 8.9731C8.4826 8.1496 9.0961 7.5166 10.0366 7.5166C10.9771 7.5166 11.5531 8.1496 11.5711 8.9731C11.5711 9.7801 10.9771 10.4326 9.9991 10.4326ZM22.1251 20.9686H19.2091V15.7681C19.2091 14.5576 18.7861 13.7356 17.7316 13.7356C16.9261 13.7356 16.4476 14.2921 16.2361 14.8276C16.1581 15.0181 16.1386 15.2881 16.1386 15.5566V20.9671H13.2211V14.5771C13.2211 13.4056 13.1836 12.4261 13.1446 11.5831H15.6781L15.8116 12.8866H15.8701C16.2541 12.2746 17.1946 11.3716 18.7681 11.3716C20.6866 11.3716 22.1251 12.6571 22.1251 15.4201V20.9686Z"
                  fill="#666666"/>
        </g>
        <defs>
            <clipPath id="clip0_2_5677">
                <rect width="30" height="30" fill="white"/>
            </clipPath>
        </defs>
    </g>

    <g id="twitterSvg">
        <path d="M16.875 1.875C8.59152 1.875 1.875 8.59152 1.875 16.875C1.875 25.1585 8.59152 31.875 16.875 31.875C25.1585 31.875 31.875 25.1585 31.875 16.875C31.875 8.59152 25.1585 1.875 16.875 1.875ZM24.0837 13.1819C24.0937 13.3393 24.0937 13.5033 24.0937 13.6641C24.0937 18.5792 20.3504 24.2411 13.51 24.2411C11.4007 24.2411 9.44531 23.6283 7.79799 22.5737C8.09933 22.6071 8.38728 22.6205 8.69531 22.6205C10.4364 22.6205 12.0368 22.0312 13.3125 21.0335C11.6786 21 10.3058 19.9286 9.83705 18.4554C10.4096 18.5391 10.9252 18.5391 11.5145 18.3884C10.6732 18.2175 9.91699 17.7605 9.37438 17.0953C8.83178 16.43 8.53623 15.5973 8.53795 14.7388V14.692C9.03013 14.9699 9.60938 15.1406 10.2154 15.1641C9.70595 14.8245 9.28814 14.3645 8.99903 13.8249C8.70993 13.2852 8.55845 12.6825 8.55804 12.0703C8.55804 11.3772 8.73884 10.7444 9.06362 10.1953C9.99744 11.3449 11.1627 12.2851 12.4837 12.9548C13.8047 13.6245 15.2518 14.0088 16.731 14.0826C16.2054 11.5547 18.0938 9.50893 20.3638 9.50893C21.4353 9.50893 22.3996 9.95759 23.0792 10.6808C23.9196 10.5234 24.7232 10.2087 25.4397 9.78683C25.1618 10.6473 24.5792 11.3739 23.8058 11.8326C24.5558 11.7522 25.279 11.5446 25.9487 11.2533C25.4431 11.9967 24.8103 12.6562 24.0837 13.1819Z"
              fill="#666666"/>

    </g>

    <g id="githubSvg">
        <path fill-rule="evenodd" clip-rule="evenodd"
              d="M15 0C6.7125 0 0 6.7125 0 15C0 21.6375 4.29375 27.2437 10.2563 29.2313C11.0063 29.3625 11.2875 28.9125 11.2875 28.5188C11.2875 28.1625 11.2688 26.9813 11.2688 25.725C7.5 26.4188 6.525 24.8062 6.225 23.9625C6.05625 23.5312 5.325 22.2 4.6875 21.8438C4.1625 21.5625 3.4125 20.8687 4.66875 20.85C5.85 20.8313 6.69375 21.9375 6.975 22.3875C8.325 24.6562 10.4812 24.0187 11.3438 23.625C11.475 22.65 11.8688 21.9937 12.3 21.6187C8.9625 21.2437 5.475 19.95 5.475 14.2125C5.475 12.5813 6.05625 11.2313 7.0125 10.1813C6.8625 9.80625 6.3375 8.26875 7.1625 6.20625C7.1625 6.20625 8.41875 5.8125 11.2875 7.74375C12.4875 7.40625 13.7625 7.2375 15.0375 7.2375C16.3125 7.2375 17.5875 7.40625 18.7875 7.74375C21.6562 5.79375 22.9125 6.20625 22.9125 6.20625C23.7375 8.26875 23.2125 9.80625 23.0625 10.1813C24.0188 11.2313 24.6 12.5625 24.6 14.2125C24.6 19.9688 21.0938 21.2437 17.7563 21.6187C18.3 22.0875 18.7688 22.9875 18.7688 24.3937C18.7688 26.4 18.75 28.0125 18.75 28.5188C18.75 28.9125 19.0312 29.3813 19.7812 29.2313C22.759 28.2259 25.3465 26.3121 27.1796 23.7592C29.0127 21.2063 29.9991 18.1429 30 15C30 6.7125 23.2875 0 15 0Z"
              fill="#666666"/>

    </g>

</svg>
